<?xml version="1.0" encoding="utf-8"?>
<!-- Generator: Adobe Illustrator 19.0.0, SVG Export Plug-In . SVG Version: 6.00 Build 0)  -->
<svg version="1.1" id="レイヤー_1" xmlns="http://www.w3.org/2000/svg" xmlns:xlink="http://www.w3.org/1999/xlink" x="0px"
	 y="0px" viewBox="0 0 72.9 76" style="enable-background:new 0 0 72.9 76;" xml:space="preserve">
<style type="text/css">
	.st0{fill:#07840A;}
	.st1{fill:#FFFFFF;}
	.st2{fill:#FFFFFF;stroke:#FCFCFC;stroke-miterlimit:10;}
	.st3{fill:#FFFFFF;stroke:#FFFFFF;stroke-miterlimit:10;}
</style>
<g>
	<path class="st0" d="M26.3,2.4c4.6-2.6,6.5-1.5,10,0c3.8,4.1,7.6,8.1,11.7,12.4c0.3-0.2,1-0.5,1.7-1c10.5-7.3,12.6-7.3,22.7,0.5
		c0.5,0.8,1.1,1.6,0,3c-5.8,1-11.6,2.6-17.4,2.9c-6.1,0.4-7.8,2.3-5.6,8.3c7.2,19.6-1.3,37.9-20.9,44.6c-0.8,0.3-1.4,0.8-2.1,1.2
		c-4.3,1-8.2,1-12,0c-6.4-2.3-10.8-6.6-13-13c-0.5-3.8-1.1-7.3,0-11C3.5,44.7,5.8,39,8,33.4c5.6-14,17.5-19,31.6-13.1
		c1.3,0.5,2.6,0.9,3.9,1.4c0.3-0.4,0.6-0.7,0.8-1.1c-1-1.3-1.7-3.2-3-3.9c-2.8-1.4-5.8-2.4-8.9-3C24.1,12.3,22.7,9.7,26.3,2.4z
		 M28.7,62.6c-0.1,0.4-0.1,0.8-0.2,1.2c2.3,0.9,4.6,2.4,7,2.6c4.3,0.4,6.5-2.1,7-6.5c0.6-5.3,1.9-10.5,2.9-15.7
		c0.5-2.6,1.4-5.4-2.9-5.8c-3.6-0.4-6.7-0.7-7.1,4.3c-0.3,3.6-1.3,7.1-1.8,10c-2.7-2-5.2-5.2-7.1-4.9c-2.4,0.3-4.5,3.5-6.9,5.7
		c-0.3-3.5-0.6-7.2-0.8-11c-0.4-5.6-4.5-3.5-7.5-3.7c-3.5-0.2-3.6,1.9-3.1,4.6C9,48,9.8,52.8,10.7,57.5c1.8,9.4,2.3,9.8,11.7,8.4
		C24.6,65.5,26.6,63.7,28.7,62.6z M24.3,25.7c0.1,0.6,0.1,1.3,0.2,1.9c-2.2,0.6-4.6,0.8-6.6,1.8c-1.4,0.7-3.3,2.5-3.2,3.7
		c0.1,1.3,2.2,3.3,3.5,3.4c3.5,0.3,7.1-0.2,11.1-0.4c-0.5-4.9,1.8-10.1-3.8-12.4c-3.2-1.3-7-1.5-10,2.9C19,26.2,21.7,26,24.3,25.7z
		 M32,36c1,0,1.9,0,2.9-0.1c0-4.1,0-8.2-0.1-12.4c0-0.4-0.9-1-1.4-1c-0.5,0-1.5,0.6-1.5,0.9C31.9,27.7,32,31.8,32,36z M39.1,22.7
		c-0.6,0-1.2,0-1.8,0c0,4.4,0,8.9,0,13.3c0.6,0,1.2,0,1.8,0C39.1,31.5,39.1,27.1,39.1,22.7z"/>
	<path class="st1" d="M28.7,62.6c-2.1,1.1-4.1,2.9-6.3,3.3c-9.4,1.5-9.9,1-11.7-8.4C9.8,52.8,9,48,8.1,43.3
		c-0.5-2.7-0.4-4.8,3.1-4.6c3,0.1,7.1-1.9,7.5,3.7c0.2,3.7,0.5,7.5,0.8,11c2.5-2.2,4.5-5.4,6.9-5.7c2-0.3,4.4,2.9,7.1,4.9
		c0.5-2.8,1.5-6.4,1.8-10c0.5-5,3.5-4.6,7.1-4.3c4.3,0.5,3.4,3.2,2.9,5.8c-1,5.2-2.3,10.4-2.9,15.7c-0.5,4.5-2.6,6.9-7,6.5
		c-2.4-0.2-4.6-1.7-7-2.6C28.6,63.4,28.6,63,28.7,62.6z"/>
	<path class="st2" d="M24.3,25.7c-2.7,0.3-5.4,0.6-8.8,0.9c3-4.4,6.8-4.2,10-2.9c5.7,2.3,3.3,7.5,3.8,12.4
		c-3.9,0.2-7.5,0.7-11.1,0.4c-1.4-0.1-3.4-2.1-3.5-3.4c-0.1-1.1,1.8-2.9,3.2-3.7c2-1,4.4-1.3,6.6-1.8C24.4,27,24.4,26.3,24.3,25.7z
		 M25.5,32.9c-0.2-0.8-0.5-1.7-0.7-2.5c-2.1,0.6-4.2,1.2-6.3,1.8c0.2,0.8,0.4,1.5,0.6,2.3C21.3,33.9,23.4,33.4,25.5,32.9z"/>
	<path class="st1" d="M32,36c0-4.2-0.1-8.3,0-12.5c0-0.3,1-0.9,1.5-0.9c0.5,0,1.4,0.6,1.4,1c0.1,4.1,0.1,8.2,0.1,12.4
		C33.9,36,33,36,32,36z"/>
	<path class="st3" d="M39.1,22.7c0,4.4,0,8.9,0,13.3c-0.6,0-1.2,0-1.8,0c0-4.4,0-8.9,0-13.3C37.9,22.6,38.5,22.6,39.1,22.7z"/>
	<path class="st0" d="M25.5,32.9c-2.1,0.5-4.3,1-6.4,1.5c-0.2-0.8-0.4-1.5-0.6-2.3c2.1-0.6,4.2-1.2,6.3-1.8
		C25,31.2,25.3,32,25.5,32.9z"/>
</g>
</svg>
